<?xml version="1.0" standalone="no"?>
<!DOCTYPE svg PUBLIC "-//W3C//DTD SVG 20010904//EN"
 "http://www.w3.org/TR/2001/REC-SVG-20010904/DTD/svg10.dtd">
<svg version="1.0" xmlns="http://www.w3.org/2000/svg"
 width="481.000000pt" height="485.000000pt" viewBox="0 0 481.000000 485.000000"
 preserveAspectRatio="xMidYMid meet">

<g transform="translate(0.000000,485.000000) scale(0.100000,-0.100000)"
fill="#000000" stroke="none">
<path d="M2290 4635 l0 -215 -41 0 c-137 0 -412 -62 -597 -134 -697 -270
-1188 -898 -1266 -1616 l-11 -105 -188 -3 -187 -2 0 -110 0 -110 187 -2 188
-3 11 -105 c65 -591 404 -1122 926 -1448 257 -160 603 -276 891 -298 l87 -7 0
-238 0 -239 110 0 110 0 2 237 3 238 105 11 c539 58 1039 326 1367 733 236
294 383 631 423 971 6 52 13 107 16 122 l5 28 187 2 187 3 0 105 0 105 -184 2
c-141 1 -186 5 -191 15 -4 7 -12 63 -19 123 -45 411 -245 818 -556 1131 -310
312 -707 511 -1155 578 -58 9 -123 17 -145 18 l-40 3 -3 213 -2 212 -110 0
-110 0 0 -215z m2 -672 l3 -278 105 0 105 0 3 278 2 277 24 0 c61 0 278 -36
361 -61 330 -95 595 -249 826 -479 147 -147 247 -285 343 -477 95 -189 164
-430 169 -591 l2 -73 -292 1 -293 1 0 -111 0 -110 296 0 297 0 -7 -77 c-15
-167 -75 -385 -152 -552 -222 -484 -684 -863 -1214 -996 -99 -25 -278 -55
-330 -55 l-30 0 -2 253 -3 252 -105 0 -105 0 -3 -252 -2 -253 -30 0 c-41 0
-212 26 -291 45 -613 142 -1121 597 -1322 1185 -43 126 -86 332 -87 413 l0 37
300 0 301 0 -3 108 -3 107 -295 2 -295 2 -3 26 c-7 58 39 289 89 438 30 89
139 309 197 397 130 195 308 372 507 505 131 87 170 108 295 162 91 40 124 52
235 86 96 29 288 63 372 66 l33 1 2 -277z"/>
<path d="M2305 3374 c-466 -49 -829 -421 -852 -873 -11 -227 50 -429 185 -605
132 -173 298 -282 522 -344 82 -22 115 -26 240 -26 126 0 158 4 243 27 181 50
319 128 444 255 242 244 326 606 216 932 -46 136 -105 232 -207 338 -139 144
-295 233 -487 276 -69 16 -238 27 -304 20z m245 -195 c81 -13 175 -50 262
-103 156 -96 263 -231 324 -411 25 -71 28 -95 28 -215 0 -113 -3 -146 -22
-204 -76 -234 -244 -410 -474 -496 -59 -22 -210 -50 -268 -50 -58 0 -209 29
-270 51 -229 85 -416 286 -476 514 -101 384 130 776 531 900 104 32 219 37
365 14z"/>
</g>
</svg>
