<?xml version="1.0" standalone="no"?>
<!DOCTYPE svg PUBLIC "-//W3C//DTD SVG 20010904//EN"
 "http://www.w3.org/TR/2001/REC-SVG-20010904/DTD/svg10.dtd">
<svg version="1.0" xmlns="http://www.w3.org/2000/svg"
 width="1932.000000pt" height="494.000000pt" viewBox="0 0 1932.000000 494.000000"
 preserveAspectRatio="xMidYMid meet">

<g transform="translate(0.000000,494.000000) scale(0.100000,-0.100000)"
fill="#000000" stroke="none">
<path d="M3330 3975 l0 -135 -29 0 c-15 0 -68 -7 -117 -15 -289 -50 -532 -180
-732 -391 -186 -195 -300 -433 -333 -695 l-12 -89 -118 0 -119 0 0 -65 0 -65
119 0 119 0 7 -62 c62 -581 523 -1041 1120 -1119 l95 -12 0 -149 0 -148 70 0
70 0 0 148 0 148 113 16 c420 61 778 312 967 678 73 142 112 272 135 453 l6
47 120 0 119 0 0 65 0 65 -120 0 c-66 0 -120 3 -120 6 0 4 -7 53 -16 111 -82
557 -536 992 -1111 1065 l-93 12 0 133 0 133 -70 0 -70 0 0 -135z m0 -430 l0
-175 70 0 70 0 0 175 0 175 40 0 c91 0 285 -53 408 -111 166 -79 348 -234 451
-384 102 -147 178 -345 197 -514 l7 -61 -87 0 -86 0 0 -65 0 -65 86 0 87 0 -7
-61 c-20 -176 -110 -402 -215 -539 -63 -84 -199 -214 -280 -269 -148 -101
-367 -182 -533 -198 l-68 -6 0 162 0 161 -70 0 -70 0 0 -160 0 -160 -36 0
c-62 0 -234 40 -326 75 -316 122 -569 379 -677 687 -33 97 -61 219 -61 273 l0
35 80 0 80 0 0 65 0 65 -81 0 -82 0 6 64 c15 156 85 345 182 492 68 102 191
230 286 297 170 120 419 213 582 216 l47 1 0 -175z"/>
<path d="M3328 3169 c-144 -15 -302 -96 -387 -198 -45 -54 -48 -63 -25 -82 8
-7 23 -28 33 -47 l18 -35 21 35 c49 79 156 159 262 194 82 28 235 25 315 -6
103 -40 193 -109 246 -189 l15 -24 23 36 c12 20 29 41 38 45 22 13 7 37 -74
113 -131 123 -297 177 -485 158z"/>
<path d="M3935 2786 c-20 -47 -7 -95 33 -127 35 -27 38 -14 17 69 -23 96 -31
105 -50 58z"/>
<path d="M2830 2784 c-19 -49 -34 -124 -26 -131 3 -4 19 5 34 20 21 22 27 37
27 72 0 58 -20 80 -35 39z"/>
<path d="M2500 2640 c0 -5 25 -10 55 -10 30 0 55 5 55 10 0 6 -25 10 -55 10
-30 0 -55 -4 -55 -10z"/>
<path d="M4190 2640 c0 -5 23 -10 50 -10 28 0 50 5 50 10 0 6 -22 10 -50 10
-27 0 -50 -4 -50 -10z"/>
<path d="M2885 2584 c-11 -8 -37 -20 -57 -26 l-38 -11 40 -34 c33 -29 181
-238 197 -279 3 -9 -9 -14 -48 -16 l-52 -3 27 -32 c41 -48 166 -128 239 -152
226 -75 476 -20 636 140 l43 44 -56 3 c-31 2 -56 5 -56 8 0 17 176 268 204
291 l35 27 -52 21 -52 20 -16 -82 c-10 -45 -29 -104 -44 -132 -28 -51 -104
-149 -117 -150 -4 -1 -26 -14 -50 -30 -81 -54 -153 -74 -263 -75 -113 -1 -196
21 -275 74 -25 16 -51 30 -57 30 -7 0 -13 5 -13 11 0 6 -16 29 -35 50 -62 69
-108 182 -118 291 -2 25 -3 26 -22 12z"/>
<path d="M2500 2530 c0 -5 25 -10 55 -10 30 0 55 5 55 10 0 6 -25 10 -55 10
-30 0 -55 -4 -55 -10z"/>
<path d="M4190 2530 c0 -5 23 -10 50 -10 28 0 50 5 50 10 0 6 -22 10 -50 10
-27 0 -50 -4 -50 -10z"/>
</g>
</svg>
