<?xml version="1.0" encoding="utf-8"?>
<!-- Generator: Adobe Illustrator 25.2.1, SVG Export Plug-In . SVG Version: 6.00 Build 0)  -->
<svg version="1.1" id="katman_1" xmlns="http://www.w3.org/2000/svg" xmlns:xlink="http://www.w3.org/1999/xlink" x="0px" y="0px"
	 viewBox="0 0 90 90.6" style="enable-background:new 0 0 90 90.6;" xml:space="preserve">
<style type="text/css">
	.st0{fill:#A11217;}
	.st1{fill:#F8F8F8;}
	.st2{fill:#606060;}
</style>
<g id="VjMClI.tif">
	<g>
		<path class="st0" d="M42.9,86.2c0-1.2,0-2.5,0-3.7c0-0.5-0.2-0.7-0.7-0.7c-3.8-0.3-7.4-1.1-10.9-2.4c-3.6-1.3-6.9-3.2-9.9-5.5
			c-3.6-2.8-6.6-6.1-9-10c-2.5-4.2-4.2-8.6-5-13.4c-0.1-0.9-0.3-1.7-0.3-2.6c0-0.7-0.3-0.9-1-0.9c-1.8,0-3.6,0-5.4,0
			C0.2,47,0,46.8,0,46.2c0-0.9,0-1.8,0-2.8c0-0.5,0.2-0.7,0.7-0.7c1.8,0,3.6,0,5.4,0c0.7,0,1-0.3,1-1c0.4-6.3,2.5-12.1,6-17.3
			c3.7-5.5,8.5-9.7,14.5-12.7c4-2,8.3-3.4,12.8-3.7c0.6,0,1.2-0.1,1.8-0.2c0.6,0,0.8-0.3,0.8-0.9c0-2.1,0-4.1,0-6.2
			C43,0.2,43.1,0,43.8,0c0.8,0,1.5,0,2.3,0c0.6,0,0.9,0.2,0.8,0.8c0,1.9,0,3.9,0,5.8c0,1.2,0,1.2,1.2,1.3c5.4,0.4,10.6,1.9,15.4,4.6
			c6.8,3.7,11.9,9,15.5,15.8c1.9,3.6,3,7.5,3.6,11.6c0.1,0.7,0.2,1.4,0.2,2.1c0,0.7,0.4,0.9,1.1,0.9c1.7,0,3.5,0,5.2,0
			c0.6,0,0.9,0.1,0.9,0.9c-0.1,0.7,0,1.5,0,2.2c0,0.6-0.2,0.8-0.7,0.8c-1.8,0-3.6,0-5.4,0c-0.7,0-1,0.2-1.1,1
			c-0.4,5.1-1.8,9.9-4.2,14.3c-2.1,3.9-4.8,7.4-8.2,10.4c-4.2,3.6-8.9,6.3-14.3,7.8c-2.6,0.8-5.2,1.3-7.9,1.4
			c-1.1,0-1.2,0.2-1.2,1.3c0,2.3,0,4.5,0,6.8c0,0.7-0.2,0.9-0.9,0.9c-0.9-0.1-1.7,0-2.6,0c-0.5,0-0.6-0.2-0.6-0.6
			C42.9,88.7,42.9,87.4,42.9,86.2C42.9,86.2,42.9,86.2,42.9,86.2z M15.3,46.9c-1.4,0-2.8,0-4.2,0c-0.5,0-0.7,0.2-0.6,0.7
			c0.2,1.9,0.5,3.8,1,5.7c2.1,7.5,6.3,13.5,12.5,18.2c3.1,2.4,6.7,4.1,10.4,5.3c2.6,0.8,5.2,1.2,7.9,1.5c0.6,0.1,0.7-0.3,0.7-0.8
			c0-2.6,0-5.1,0-7.7c0-0.8,0.2-1,1-0.9c0.5,0.1,1.1,0,1.6,0c1.5,0,1.4-0.2,1.4,1.3c0,2.4,0,4.8,0,7.2c0,0.9,0.1,1,1,0.9
			c0.5-0.1,0.9-0.1,1.4-0.2c3.3-0.4,6.4-1.3,9.5-2.6c2.2-0.9,4.2-2.1,6.2-3.4c1.9-1.3,3.7-2.7,5.3-4.4c1.1-1.2,2-2.6,3.1-3.9
			c1.2-1.4,2-3.1,2.8-4.7c0.8-1.7,1.6-3.4,2-5.3c0.5-2.1,1-4.2,1.1-6.4c0-0.6-0.2-0.6-0.6-0.6c-1.2,0-2.3,0-3.5,0
			c-0.6,0-0.8-0.2-0.7-0.8c0-0.8,0-1.7,0-2.5c0-0.6,0.2-0.8,0.8-0.7c1.1,0,2.3,0,3.5,0c0.6,0,0.8-0.2,0.8-0.8
			c-0.2-2.3-0.6-4.5-1.3-6.7c-1.6-5.2-4.3-9.8-8.1-13.7c-2.1-2.2-4.6-4.1-7.2-5.6c-4.6-2.7-9.6-4.2-14.8-4.7c-1-0.1-1,0-1.1,1
			c0,2.9,0,5.7,0,8.6c0,0.6-0.1,0.8-0.8,0.8c-0.8,0-1.7,0-2.5,0c-0.6,0-0.7-0.2-0.7-0.8c0-1.6,0-3.1,0-4.7c0-1.4,0-2.8,0-4.2
			c0-0.3,0-0.7-0.4-0.6c-0.5,0.1-0.9,0-1.4,0c-2,0.2-4,0.6-5.9,1.1c-6.6,2-12.2,5.4-16.7,10.6c-2.5,2.9-4.4,6.1-5.8,9.6
			c-1.2,3-1.9,6.1-2.2,9.3c-0.1,0.6,0.2,0.7,0.7,0.7c1.4,0,2.8,0,4.1,0C15.5,44.1,15.5,45.5,15.3,46.9z"/>
		<path class="st1" d="M18.5,47c-0.2,1-0.1,2.1-0.1,3.1c0,1.6,0,3.2,0,4.7c0,0.6-0.2,0.7-0.8,0.8c-2.3,0-2.3,0.1-2.3-2.2
			c0-2.2,0.1-4.3-0.1-6.5c0.1-1.4,0.2-2.8,0-4.2c0.2-0.6,0.1-1.2,0.1-1.8c0-1.9,0-3.9,0-5.8c0-0.5,0.1-0.8,0.7-0.8
			c3.5,0,7.1,0,10.6,0.1c1.2,0,2.2,0.4,3.3,0.8c0.6,0.5,1.2,1.1,1.6,1.7c0.3,0.4,0.3,1,0.7,1.3c0,0.4,0,0.8,0.1,1.2
			c0.2,2-0.3,3.6-1.8,4.9c-1.1,0.8-2.3,1.2-3.6,1.5c0.5,0.4,1,0.7,1.4,1.1c2.3,2.4,3.8,5.3,5.6,8.1c0.2,0.4,0,0.5-0.3,0.5
			c-0.9,0-1.8,0-2.7,0c-0.5,0-0.7-0.3-0.9-0.7c-1.4-2.1-2.7-4.3-4.2-6.4c-0.8-1.1-1.8-2.1-3.2-2.3c-0.3,0-0.7-0.2-0.9,0.1
			c-0.1-0.3-0.4-0.2-0.6-0.2c-0.7,0-1.4,0-2.1,0C18.5,46.2,18.3,46.4,18.5,47z M27.1,43.2c1.2-0.3,1.9-1.2,2.2-2.3
			c0.3-1,0.1-2-0.8-2.8c-0.5-0.7-1.2-0.9-1.9-1.1c-2.5-0.4-5-0.1-7.6-0.2c-0.4,0-0.6,0.2-0.6,0.5c0,1.8-0.1,3.6,0.1,5.4
			c-0.1,0.3-0.2,0.8,0.3,0.9c1,0,2,0.2,2.9-0.1C23.5,43.7,25.3,43.7,27.1,43.2z"/>
		<path class="st1" d="M68.3,46.3c-1.6-0.3-2.8,0.3-3.8,1.5c-1.5,1.8-2.7,3.8-3.9,5.7c-0.3,0.5-0.6,1-0.9,1.5
			c-0.2,0.4-0.5,0.6-0.9,0.6c-0.8,0-1.6,0-2.4,0c-0.7,0-0.8-0.1-0.4-0.7c2.1-3,3.6-6.6,6.9-8.9c-1.3-0.3-2.3-0.7-3.4-1.3
			c-1.5-1.3-2.3-3-2.1-5c0.1-1,0.5-1.8,0.8-2.7c0.2-0.2,0.3-0.4,0.5-0.7c0.2,0,0.3-0.1,0.2-0.3c0.3-0.2,0.6-0.5,0.8-0.7
			c1.8-1,3.9-1,5.9-1c2.6,0,5.2,0,7.8,0c0.7,0,1,0.2,1,0.9c0,6.5,0,12.9,0,19.4c0,0.7-0.2,0.9-0.9,0.9c-2.1,0-2.1,0-2.1-2.1
			c0-2.3,0-4.6,0-6.9c0,0,0-0.1,0-0.1c0-0.1-0.1-0.1-0.1,0c-0.1-0.2-0.2-0.2-0.3-0.2C70.1,46.2,69.2,46.1,68.3,46.3z M62.7,43.2
			c1.7,0.6,3.5,0.3,5.3,0.4c0.1,0,0.3,0,0.4-0.1c0.1-0.1,0.1-0.2,0.1-0.3c-0.1-0.1-0.2-0.1-0.3,0c-0.1,0.5,0.3,0.5,0.6,0.5
			c0.6,0,1.3,0,1.9,0c0.8,0,0.8-0.1,0.6-0.9c0.2-1.8,0-3.5,0.1-5.3c0-0.4-0.2-0.6-0.6-0.6c-2.5,0.1-5.1-0.2-7.6,0.2
			c-0.7,0.1-1.3,0.3-1.7,0.9c-0.2,0-0.3,0.1-0.4,0.3C59.7,40,60.6,42.6,62.7,43.2z"/>
		<path class="st0" d="M59.4,44.7c1,0.6,2.1,1,3.4,1.3c-3.3,2.3-4.7,5.9-6.9,8.9c-0.4,0.6-0.3,0.7,0.4,0.7c0.8,0,1.6,0,2.4,0
			c-0.8,1.3-2,2.3-3.2,3.2c-1.4,1-2.9,1.9-4.6,2.4c-1.5,0.5-3,0.9-4.7,1c-2.4,0-4.7,0-7-0.8c-1.5-0.5-2.9-1.2-4.3-2
			c-0.9-0.6-1.8-1.3-2.6-2c-0.6-0.5-1.1-1.1-1.5-1.7c0.9,0,1.8,0,2.7,0c0.4,0,0.6-0.1,0.3-0.5c-1.8-2.7-3.3-5.7-5.6-8.1
			c-0.4-0.4-0.9-0.7-1.4-1.1c1.3-0.3,2.6-0.8,3.6-1.5c0,2,0.3,4,1.2,5.9c0.8,1.7,1.8,3.3,3.2,4.4c-0.2,0.7,0.1,1,0.8,0.9
			c0.1,0,0.3,0,0.5,0c0.1,0.5,0.6,0.7,0.9,0.9c5,2.9,10,3,15.1,0.3c0.6-0.3,1.2-0.5,1.5-1.2c0.3-0.1,0.9,0.2,0.9-0.5
			c0.9-0.6,1.5-1.5,2.1-2.4c1.1-1.5,1.8-3.1,2.2-4.9C59.3,46.7,59.3,45.7,59.4,44.7z"/>
		<path class="st0" d="M59.7,35.3c-0.3,0.2-0.6,0.5-0.8,0.7c-0.2,0-0.3,0.1-0.2,0.3c-0.2,0.2-0.3,0.4-0.5,0.7
			c-0.2,0-0.2,0.1-0.2,0.2c-0.1,0.2-0.1,0.6-0.4,0.6c-0.2,0-0.3-0.3-0.4-0.5c-1-1.4-2.1-2.6-3.4-3.6c-3.4-2.4-7.2-3.4-11.2-2.6
			c-4.4,0.8-7.8,3.2-10.1,7.1c-0.4-0.3-0.4-0.9-0.7-1.3c-0.4-0.7-1-1.2-1.6-1.7c2.1-3,4.9-5.2,8.4-6.6c3.4-1.3,6.9-1.6,10.5-0.8
			c2.1,0.5,4,1.2,5.8,2.4c1.8,1.1,3.3,2.6,4.6,4.2C59.5,34.7,59.6,35,59.7,35.3z"/>
		<path class="st0" d="M18.5,47c-0.2-0.5-0.1-0.8,0.5-0.8c0.7,0,1.4,0,2.1,0c0.2,0,0.5-0.1,0.6,0.2c0,0.5-0.3,0.5-0.7,0.5
			C20.2,46.9,19.4,47,18.5,47z"/>
		<path class="st0" d="M68.3,46.3c0.9-0.2,1.7-0.1,2.6-0.1c0.2,0,0.3,0.1,0.3,0.2c-0.1,0.2-0.1,0.4-0.3,0.4c-0.8,0-1.6,0-2.3,0
			C68.3,46.9,68.4,46.5,68.3,46.3z"/>
		<path class="st0" d="M27.1,43.2c0.3-1.4,0.5-2.9,1-4.2c0.1-0.3,0.2-0.6,0.4-0.8c0.8,0.8,1.1,1.7,0.8,2.8
			C29,42,28.3,42.9,27.1,43.2z"/>
		<path class="st0" d="M18.5,42.7c0.8,0,1.6,0,2.4,0c0.6,0,0.9,0.2,0.8,0.7c-1,0.3-2,0.1-2.9,0.1C18.3,43.6,18.4,43.1,18.5,42.7z"/>
		<path class="st0" d="M61.4,38c0.7,1.7,1.2,3.4,1.3,5.2c-2.1-0.6-3-3.2-1.7-4.9C61.1,38.1,61.2,38,61.4,38z"/>
		<path class="st0" d="M68.2,43.1c0.3-0.3,0.7-0.3,1-0.3c0.7,0,1.4,0,2-0.1c0.2,0.8,0.1,0.9-0.6,0.9c-0.6,0-1.3,0-1.9,0
			C68.4,43.6,68.1,43.6,68.2,43.1z"/>
		<path class="st2" d="M58.6,36.3c0-0.2,0.1-0.3,0.2-0.3C58.9,36.2,58.8,36.3,58.6,36.3z"/>
		<path class="st1" d="M35,54.7c0.7-1.1,1-2.3,1.4-3.4c2.1-5.4,4.2-10.9,6.3-16.3c0.2-0.4,0.4-0.6,0.9-0.6c0.6,0,1.2,0.1,1.8,0
			c0.6-0.1,0.9,0.2,1.1,0.8c2.7,6.6,5.3,13.1,8,19.7c0,0.1,0.1,0.2,0.2,0.3c0,0.7-0.6,0.4-0.9,0.5c-0.6,0-1.2,0-1.8,0
			c-0.5,0-0.7-0.1-0.9-0.6c-0.6-1.7-1.3-3.4-2-5.1c-0.2-0.5-0.5-0.7-1-0.7c-2.3,0-4.7,0-7,0c-0.6,0-0.9,0.3-1.1,0.8
			c-0.5,1.3-0.9,2.6-1.4,3.9c-0.6,1.6-0.6,1.6-2.3,1.7c-0.2,0-0.3,0-0.5,0C35.1,55.7,34.8,55.4,35,54.7z M44.6,37.5
			c-0.4,0.5-0.4,1.1-0.6,1.6c-0.7,2.4-1.7,4.7-2.6,7c-0.2,0.4-0.1,0.6,0.4,0.6c1.9,0,3.7,0,5.6,0c0.4,0,0.6-0.1,0.4-0.6
			C46.7,43.3,45.7,40.4,44.6,37.5z"/>
	</g>
</g>
</svg>
